HIERARCHY
ROOT Hips
{
	OFFSET 0.000000 0.000000 0.000000
	CHANNELS 6 Xposition Yposition Zposition Zrotation Yrotation Xrotation 
	JOINT LHipJoint
	{
		OFFSET 0.000000 0.000000 0.000000
		CHANNELS 3 Zrotation Yrotation Xrotation
		JOINT LeftUpLeg
		{
			OFFSET 1.363060 -1.794630 0.839290
			CHANNELS 3 Zrotation Yrotation Xrotation
			JOINT LeftLeg
			{
				OFFSET 2.448110 -6.726130 0.000000
				CHANNELS 3 Zrotation Yrotation Xrotation
				JOINT LeftFoot
				{
					OFFSET 2.562200 -7.039590 0.000000
					CHANNELS 3 Zrotation Yrotation Xrotation
					JOINT LeftToeBase
					{
						OFFSET 0.157640 -0.433110 2.322550
						CHANNELS 3 Zrotation Yrotation Xrotation
						End Site
						{
							OFFSET 0.000000 0.000000 0.000000
						}
					}
				}
			}
		}
	}
	JOINT RHipJoint
	{
		OFFSET 0.000000 0.000000 0.000000
		CHANNELS 3 Zrotation Yrotation Xrotation
		JOINT RightUpLeg
		{
			OFFSET -1.305520 -1.794630 0.839290
			CHANNELS 3 Zrotation Yrotation Xrotation
			JOINT RightLeg
			{
				OFFSET -2.542530 -6.985550 0.000000
				CHANNELS 3 Zrotation Yrotation Xrotation
				JOINT RightFoot
				{
					OFFSET -2.568260 -7.056230 0.000000
					CHANNELS 3 Zrotation Yrotation Xrotation
					JOINT RightToeBase
					{
						OFFSET -0.164730 -0.452590 2.363150
						CHANNELS 3 Zrotation Yrotation Xrotation
						End Site
						{
							OFFSET 0.000000 0.000000 0.000000
						}
					}
				}
			}
		}
	}
	JOINT LowerBack
	{
		OFFSET 0.000000 0.000000 0.000000
		CHANNELS 3 Zrotation Yrotation Xrotation
		JOINT Spine
		{
			OFFSET 0.028270 2.035590 -0.193380
			CHANNELS 3 Zrotation Yrotation Xrotation
			JOINT Spine1
			{
				OFFSET 0.056720 2.048850 -0.042750
				CHANNELS 3 Zrotation Yrotation Xrotation
				JOINT Neck
				{
					OFFSET 0.000000 0.000000 0.000000
					CHANNELS 3 Zrotation Yrotation Xrotation
					JOINT Neck1
					{
						OFFSET -0.054170 1.746240 0.172020
						CHANNELS 3 Zrotation Yrotation Xrotation
						JOINT Head
						{
							OFFSET 0.104070 1.761360 -0.123970
							CHANNELS 3 Zrotation Yrotation Xrotation
							End Site
							{
								OFFSET 0.000000 0.000000 0.000000
							}
						}
					}
				}
				JOINT LeftShoulder
				{
					OFFSET 0.000000 0.000000 0.000000
					CHANNELS 3 Zrotation Yrotation Xrotation
					JOINT LeftArm
					{
						OFFSET 3.362410 1.200890 -0.311210
						CHANNELS 3 Zrotation Yrotation Xrotation
						JOINT LeftForeArm
						{
							OFFSET 4.983000 -0.000000 -0.000000
							CHANNELS 3 Zrotation Yrotation Xrotation
							JOINT LeftHand
							{
								OFFSET 3.483560 -0.000000 -0.000000
								CHANNELS 3 Zrotation Yrotation Xrotation
								JOINT LeftFingerBase
								{
									OFFSET 0.000000 0.000000 0.000000
									CHANNELS 3 Zrotation Yrotation Xrotation
									JOINT LeftHandIndex1
									{
										OFFSET 0.715260 -0.000000 -0.000000
										CHANNELS 3 Zrotation Yrotation Xrotation
										End Site
										{
											OFFSET 0.000000 0.000000 0.000000
										}
									}
								}
								JOINT LThumb
								{
									OFFSET 0.000000 0.000000 0.000000
									CHANNELS 3 Zrotation Yrotation Xrotation
									End Site
									{
										OFFSET 0.000000 0.000000 0.000000
									}
								}
							}
						}
					}
				}
				JOINT RightShoulder
				{
					OFFSET 0.000000 0.000000 0.000000
					CHANNELS 3 Zrotation Yrotation Xrotation
					JOINT RightArm
					{
						OFFSET -3.136600 1.374050 -0.404650
						CHANNELS 3 Zrotation Yrotation Xrotation
						JOINT RightForeArm
						{
							OFFSET -5.241900 -0.000000 -0.000000
							CHANNELS 3 Zrotation Yrotation Xrotation
							JOINT RightHand
							{
								OFFSET -3.444170 -0.000000 -0.000000
								CHANNELS 3 Zrotation Yrotation Xrotation
								JOINT RightFingerBase
								{
									OFFSET 0.000000 0.000000 0.000000
									CHANNELS 3 Zrotation Yrotation Xrotation
									JOINT RightHandIndex1
									{
										OFFSET -0.622530 -0.000000 -0.000000
										CHANNELS 3 Zrotation Yrotation Xrotation
										End Site
										{
											OFFSET 0.000000 0.000000 0.000000
										}
									}
								}
								JOINT RThumb
								{
									OFFSET 0.000000 0.000000 0.000000
									CHANNELS 3 Zrotation Yrotation Xrotation
									End Site
									{
										OFFSET 0.000000 0.000000 0.000000
									}
								}
							}
						}
					}
				}
			}
		}
	}
}
MOTION
Frames: 5
Frame Time: 0.008333
7.594629 17.373962 1.775919 -17.208399 -89.717717 52.127301 -13.917737 3.341395 -2.885550 -3.443755 7.427345 -6.989953 -0.597382 1.888534 35.898248 2.423097 17.039891 1.001969 2.313000 -0.000000 -28.443600 6.614627 0.207479 3.243263 8.420090 7.906356 -60.406927 3.717186 -0.696846 16.419960 0.876784 2.262344 10.181070 -0.267800 0.000000 -59.590300 9.309749 -5.878543 2.393114 2.077039 -6.383202 -2.478728 -3.414921 -6.605391 0.758913 2.215674 -16.628130 -5.303909 -1.191277 -0.113275 0.394662 0.000000 0.000000 0.000000 8.953768 2.442783 -0.996977 -48.998470 -31.493952 -2.614227 -179.369320 -70.267114 179.950521 4.622884 -3.004416 -0.153251 -0.119651 0.753514 -0.000000 0.000000 0.000000 0.000000 0.000000 0.000000 0.000000 -3.804272 -15.580357 1.273680 65.916759 -39.869342 12.266825 0.284064 84.087046 -0.002644 -0.689385 12.874205 -0.078734 -0.002058 -0.263893 0.000000 0.000000 0.000000 0.000000 0.000000 0.000000 0.000000 
7.250009 17.303601 1.733532 161.674543 -89.840529 -127.447865 -13.886412 3.529732 -3.062144 -3.535257 7.984902 -6.766035 -0.499193 2.175135 39.882720 2.578683 18.057257 -0.050966 2.160600 0.000000 -27.519300 6.670875 0.088839 3.006453 9.665977 7.236676 -59.243772 3.780500 -0.731203 16.729381 0.762349 1.800081 9.375540 -0.439100 -0.000000 -57.972200 9.179118 -5.870134 2.726255 1.977920 -6.363407 -2.436501 -3.732817 -6.563098 0.613196 2.797382 -16.459257 -5.276093 -1.414822 -0.130125 0.408193 0.000000 0.000000 0.000000 8.020771 1.678449 -0.780385 -50.938364 -28.876766 -0.505663 -179.274707 -72.135034 179.955555 4.476544 -2.875412 -0.142248 -0.132527 0.723428 -0.000000 0.000000 0.000000 0.000000 0.000000 0.000000 0.000000 -2.463117 -15.394280 1.263877 67.184074 -38.301272 11.145042 0.279468 84.144694 -0.003055 -0.877235 12.891536 -0.100787 0.000049 -0.272665 0.000000 0.000000 0.000000 0.000000 0.000000 0.000000 0.000000 
6.903147 17.220843 1.690714 160.036024 -89.454448 -126.450608 -13.875222 3.699698 -3.191949 -3.576257 8.491266 -6.751340 -0.365095 2.463325 43.994180 2.734132 19.069039 -1.056436 1.986900 0.000000 -26.393800 6.707013 -0.045848 2.807119 10.694818 6.661265 -58.268961 3.768000 -0.826713 17.797877 0.581833 1.195577 7.816652 -0.635500 0.000000 -55.817000 9.048830 -5.852520 2.962503 1.880586 -6.328990 -2.419679 -4.059132 -6.502553 0.445084 3.416822 -16.258807 -5.245209 -1.648808 -0.147578 0.424600 0.000000 0.000000 0.000000 7.032353 0.878073 -0.553214 -52.904755 -25.987857 1.424333 -179.253593 -74.360561 179.959354 4.437605 -2.747038 -0.134778 -0.145354 0.689017 -0.000000 0.000000 0.000000 0.000000 0.000000 0.000000 0.000000 -1.014411 -15.202970 1.223695 68.229977 -36.490920 10.489120 0.278363 84.123249 -0.003657 -1.174535 12.955557 -0.136230 0.003882 -0.282353 0.000000 0.000000 0.000000 0.000000 0.000000 0.000000 0.000000 
6.554801 17.126488 1.647947 157.603181 -89.131521 -124.598850 -13.887240 3.844100 -3.276952 -3.574933 8.935698 -6.948432 -0.192634 2.746366 48.211604 2.888417 20.069601 -2.026105 1.790300 -0.000001 -25.126600 6.721624 -0.191141 2.649345 11.485291 6.204835 -57.503690 3.686132 -0.982052 19.586898 0.344882 0.532412 5.583000 -0.795600 0.000001 -53.208400 8.921028 -5.835431 3.099595 1.786401 -6.290790 -2.427770 -4.391467 -6.436312 0.258378 4.062863 -16.016455 -5.217255 -1.886424 -0.165020 0.441832 0.000000 0.000000 0.000000 6.003402 0.067250 -0.315149 -54.842557 -22.822576 3.118421 -179.312424 -76.930707 179.961739 4.533285 -2.624297 -0.131254 -0.157810 0.650579 -0.000000 0.000000 0.000000 0.000000 0.000000 0.000000 0.000000 0.505933 -15.001345 1.148188 69.068812 -34.421107 10.326565 0.278744 84.059551 -0.004584 -1.593309 13.057743 -0.187067 0.009400 -0.293290 0.000000 0.000000 0.000000 0.000000 0.000000 0.000000 0.000000 
6.206215 17.021880 1.605647 153.796493 -88.880841 -121.317733 -13.923102 3.951597 -3.322759 -3.540661 9.312368 -7.345344 0.021902 3.015410 52.513806 3.040373 21.048839 -2.964989 1.570900 -0.000000 -23.808300 6.716047 -0.345238 2.531809 12.039542 5.871927 -56.953273 3.544642 -1.195602 22.038668 0.064374 -0.111147 2.794837 -0.867500 -0.000001 -50.275400 8.795741 -5.832575 3.144781 1.696396 -6.263980 -2.456764 -4.727149 -6.381492 0.061976 4.723807 -15.720222 -5.197042 -2.119986 -0.181834 0.457997 0.000000 0.000000 0.000000 4.953204 -0.714222 -0.066855 -56.705234 -19.415256 4.539093 -179.450070 -79.847500 179.962756 4.781791 -2.512396 -0.131988 -0.169291 0.608510 0.000000 0.000000 0.000000 0.000000 0.000000 0.000000 0.000000 2.057913 -14.782550 1.032869 69.738203 -32.071851 10.658991 0.278493 83.986947 -0.005968 -2.130981 13.195124 -0.253600 0.016364 -0.305852 0.000000 0.000000 0.000000 0.000000 0.000000 0.000000 0.000000 
